<svg width="89" height="89" viewBox="0 0 89 89" fill="none" xmlns="http://www.w3.org/2000/svg">
<path d="M44.7323 61.9981C39.0241 62.0019 33.6635 59.2528 30.3359 54.6146C27.0085 49.9761 26.1227 44.0165 27.9569 38.6112C29.7902 33.2046 34.1193 29.0149 39.5819 27.3582C45.0453 25.7015 50.9722 26.7816 55.4994 30.2585C60.0276 33.7354 62.6 39.1831 62.4094 44.8884C62.2187 50.594 59.2884 55.8572 54.539 59.0241C51.6348 60.9602 48.2234 61.9955 44.7325 61.9984L44.7323 61.9981ZM44.7323 30.1358C40.8162 30.1564 37.0841 31.799 34.423 34.6714C31.7608 37.5438 30.4079 41.3898 30.6844 45.2955C30.961 49.2023 32.8419 52.8193 35.8824 55.2879C38.2464 57.1502 41.1327 58.2256 44.1388 58.3658C47.1437 58.505 50.118 57.7014 52.6448 56.0672C56.4384 53.5256 58.7744 49.3115 58.9184 44.7479C59.0623 40.1843 56.9964 35.831 53.371 33.0557C50.8995 31.1421 47.858 30.1142 44.7325 30.1357L44.7323 30.1358Z" fill="#62E3FF"/>
<path d="M73.0544 14.207C71.1762 14.207 69.3756 13.4614 68.0478 12.1336C66.72 10.8058 65.9734 9.00429 65.9734 7.12699C65.9734 5.24884 66.72 3.44823 68.0478 2.1204C69.3756 0.79261 71.1761 0.0460205 73.0544 0.0460205C74.9316 0.0460205 76.7322 0.79261 78.06 2.1204C79.3887 3.44819 80.1344 5.24874 80.1344 7.12699C80.1344 9.00421 79.3887 10.8058 78.06 12.1336C76.7322 13.4614 74.9317 14.207 73.0544 14.207V14.207ZM73.0544 3.58673C72.1153 3.58673 71.2145 3.95956 70.5511 4.62391C69.8867 5.28733 69.5139 6.18811 69.5139 7.12721C69.5139 8.06535 69.8867 8.96611 70.5511 9.6305C71.2145 10.2939 72.1153 10.6667 73.0544 10.6667C73.9925 10.6667 74.8933 10.2939 75.5577 9.6305C76.2211 8.96616 76.5939 8.06538 76.5939 7.12721C76.5939 6.18813 76.2211 5.28737 75.5577 4.62391C74.8933 3.95956 73.9925 3.58673 73.0544 3.58673Z" fill="#62E3FF"/>
<path d="M81.9026 51.3773C80.0253 51.3773 78.2238 50.6307 76.896 49.3029C75.5682 47.9752 74.8225 46.1746 74.8225 44.2964C74.8225 42.4191 75.5682 40.6176 76.896 39.2898C78.2237 37.962 80.0253 37.2163 81.9026 37.2163C83.7807 37.2163 85.5813 37.962 86.9091 39.2898C88.2369 40.6175 88.9826 42.4191 88.9826 44.2964C88.9826 46.1745 88.2369 47.9751 86.9091 49.3029C85.5814 50.6307 83.7808 51.3773 81.9026 51.3773ZM81.9026 40.757C80.9635 40.757 80.0636 41.1299 79.3992 41.7933C78.7358 42.4576 78.363 43.3584 78.363 44.2966C78.363 45.2356 78.7358 46.1364 79.3992 46.7999C80.0636 47.4642 80.9635 47.837 81.9026 47.837C82.8417 47.837 83.7424 47.4642 84.4058 46.7999C85.0702 46.1364 85.443 45.2357 85.443 44.2966C85.443 43.3584 85.0702 42.4577 84.4058 41.7933C83.7424 41.1299 82.8417 40.757 81.9026 40.757Z" fill="#62E3FF"/>
<path d="M65.9738 83.2372C64.0966 83.2372 62.2951 82.4916 60.9672 81.1638C59.6395 79.836 58.8938 78.0354 58.8938 76.1572C58.8938 74.28 59.6395 72.4784 60.9672 71.1506C62.295 69.8228 64.0965 69.0771 65.9738 69.0771C67.852 69.0771 69.6526 69.8228 70.9804 71.1506C72.3082 72.4784 73.0548 74.2799 73.0548 76.1572C73.0548 78.0353 72.3082 79.8359 70.9804 81.1638C69.6526 82.4916 67.8521 83.2372 65.9738 83.2372ZM65.9738 72.6169V72.6179C65.0348 72.6179 64.1349 72.9907 63.4705 73.6541C62.8071 74.3185 62.4343 75.2183 62.4343 76.1574C62.4343 77.0965 62.8071 77.9972 63.4705 78.6607C64.1349 79.325 65.0347 79.6979 65.9738 79.6979C66.9129 79.6979 67.8137 79.325 68.4771 78.6607C69.1415 77.9973 69.5143 77.0965 69.5143 76.1574C69.5143 75.2183 69.1415 74.3185 68.4771 73.6541C67.8137 72.9907 66.9129 72.6179 65.9738 72.6179V72.6169Z" fill="#62E3FF"/>
<path d="M14.6425 88.5476C12.7644 88.5476 10.9638 87.802 9.63594 86.4742C8.30815 85.1464 7.5625 83.3459 7.5625 81.4676C7.5625 79.5904 8.30815 77.7889 9.63594 76.461C10.9637 75.1332 12.7643 74.3876 14.6425 74.3876C16.5198 74.3876 18.3213 75.1332 19.6491 76.461C20.9769 77.7888 21.7226 79.5903 21.7226 81.4676C21.7226 83.3458 20.9769 85.1464 19.6491 86.4742C18.3213 87.802 16.5198 88.5476 14.6425 88.5476V88.5476ZM14.6425 77.9273V77.9283C13.7035 77.9283 12.8027 78.3011 12.1392 78.9645C11.4749 79.6289 11.1021 80.5287 11.1021 81.4678C11.1021 82.4069 11.4749 83.3077 12.1392 83.9711C12.8027 84.6355 13.7034 85.0083 14.6425 85.0083C15.5816 85.0083 16.4814 84.6355 17.1458 83.9711C17.8092 83.3077 18.183 82.4069 18.183 81.4678C18.183 80.5287 17.8092 79.6289 17.1458 78.9645C16.4815 78.3011 15.5816 77.9283 14.6425 77.9283V77.9273Z" fill="#62E3FF"/>
<path d="M7.56193 31.9059C5.68377 31.9059 3.88317 31.1603 2.55533 29.8325C1.22754 28.5047 0.480957 26.7032 0.480957 24.8259C0.480957 22.9477 1.22754 21.1471 2.55533 19.8193C3.88312 18.4915 5.68368 17.7458 7.56193 17.7458C9.43915 17.7458 11.2407 18.4915 12.5685 19.8193C13.8963 21.1471 14.642 22.9476 14.642 24.8259C14.642 26.7031 13.8963 28.5047 12.5685 29.8325C11.2407 31.1603 9.43922 31.9059 7.56193 31.9059ZM7.56193 21.2856C6.62285 21.2856 5.72209 21.6585 5.05863 22.3228C4.39428 22.9862 4.02145 23.887 4.02145 24.8261C4.02145 25.7652 4.39428 26.665 5.05863 27.3294C5.72205 27.9928 6.62283 28.3656 7.56193 28.3656C8.50007 28.3656 9.40083 27.9928 10.0652 27.3294C10.7286 26.6651 11.1015 25.7652 11.1015 24.8261C11.1015 23.887 10.7286 22.9863 10.0652 22.3228C9.40088 21.6585 8.5001 21.2856 7.56193 21.2856Z" fill="#62E3FF"/>
<path d="M81.9027 46.067H60.6618C59.6845 46.067 58.8921 45.2747 58.8921 44.2964C58.8921 43.319 59.6845 42.5266 60.6618 42.5266H81.9027C82.88 42.5266 83.6724 43.319 83.6724 44.2964C83.6724 45.2747 82.88 46.067 81.9027 46.067Z" fill="#62E3FF"/>
<path d="M54.3794 33.4106C53.7057 33.4096 53.0918 33.0256 52.7947 32.4201C52.4985 31.8156 52.5704 31.0951 52.9816 30.5607L71.6555 6.04678C71.9311 5.64965 72.3563 5.38243 72.8338 5.30672C73.3103 5.23197 73.798 5.35438 74.1821 5.64685C74.5661 5.93933 74.8147 6.37662 74.8689 6.85597C74.9231 7.33625 74.7792 7.81746 74.4699 8.18842L55.796 32.7215C55.4577 33.1606 54.9335 33.4166 54.3794 33.412L54.3794 33.4106Z" fill="#62E3FF"/>
<path d="M14.6424 83.2372C13.9584 83.24 13.3342 82.8485 13.0399 82.2318C12.7446 81.6151 12.8306 80.8835 13.2614 80.3527L33.3341 55.5709C33.9649 54.8692 35.0348 54.7861 35.7664 55.3813C36.499 55.9765 36.6354 57.0408 36.0776 57.8013L16.0048 82.5831C15.6721 82.9943 15.1713 83.2344 14.6424 83.2372L14.6424 83.2372Z" fill="#62E3FF"/>
<path d="M65.9738 77.9293C65.3851 77.9293 64.8348 77.6377 64.5049 77.15L52.0971 58.4582C51.6186 57.649 51.856 56.608 52.6362 56.0857C53.4174 55.5634 54.4704 55.7428 55.0347 56.4931L67.4249 75.0962L67.4258 75.0971C67.8314 75.6381 67.894 76.3642 67.5847 76.9669C67.2763 77.5686 66.6512 77.9424 65.9738 77.9293H65.9738Z" fill="#62E3FF"/>
<path d="M30.5712 38.685C30.2881 38.6869 30.0087 38.6196 29.7564 38.4907L6.74596 26.4014C6.31892 26.1893 5.99564 25.8146 5.84893 25.3614C5.70129 24.9073 5.74427 24.4139 5.96573 23.9925C6.18718 23.5701 6.56934 23.2553 7.02628 23.1188C7.48321 22.9833 7.97564 23.0366 8.39236 23.2683L31.4028 35.3576C32.1149 35.7417 32.4755 36.5602 32.2793 37.3441C32.0831 38.129 31.3804 38.6813 30.5712 38.685H30.5712Z" fill="#62E3FF"/>
</svg>
