<svg width="78" height="78" viewBox="0 0 78 78" fill="none" xmlns="http://www.w3.org/2000/svg">
<circle cx="39" cy="39" r="39" fill="#62E3FF"/>
<path d="M18.2684 48.0572V22.9851C18.2684 21.2085 19.6168 19.7471 21.3056 19.7471H56.1159C57.8051 19.7471 59.1536 21.2085 59.1536 22.9851V48.0572C59.1536 48.4698 58.8215 48.8049 58.4127 48.8049H19.0089C18.5996 48.8049 18.268 48.4698 18.268 48.0572H18.2684ZM12.3419 50.7673C12.3419 50.3541 12.6734 50.0195 13.0827 50.0195H64.9174C65.3262 50.0195 65.6583 50.3541 65.6583 50.7673V54.1848C65.6583 56.2503 64.3328 58.0066 62.5986 58.0066H15.4015C13.6672 58.0066 12.3418 56.2503 12.3418 54.1848L12.3419 50.7673ZM35.3069 53.7588C34.3192 53.7588 34.3192 55.2544 35.3069 55.2544H43.0338C44.0215 55.2544 44.0215 53.7588 43.0338 53.7588H35.3069ZM34.7921 39.9819V38.755C34.7921 38.6216 34.7254 38.5298 34.5925 38.4797L26.1891 34.6748C26.0898 34.6247 26.0898 34.5747 26.1891 34.5246L34.5925 30.7192C34.7254 30.6691 34.7921 30.5774 34.7921 30.444V29.2174C34.7921 29.0672 34.7254 28.9918 34.5925 28.9918L34.4927 29.0171L24.4439 33.7236C24.3273 33.7901 24.2695 33.8819 24.2695 33.9989V35.2006C24.2695 35.3172 24.3273 35.4089 24.4439 35.4758L34.4927 40.1824C34.5758 40.2157 34.6464 40.2112 34.7047 40.1696C34.763 40.1279 34.7921 40.0654 34.7921 39.9821L34.7921 39.9819ZM35.2906 43.1108H36.5374C36.6871 43.1108 36.7868 43.0443 36.8367 42.9109L42.3473 25.8626C42.3972 25.6791 42.331 25.5873 42.1482 25.5873H40.9014C40.7517 25.5873 40.6519 25.6538 40.602 25.7872L35.0914 42.8356C35.0416 43.0191 35.1078 43.1108 35.2906 43.1108ZM43.4198 40.207L43.5195 40.1822L53.5684 35.4756C53.6845 35.4087 53.7428 35.3169 53.7428 35.2004V33.9987C53.7428 33.8817 53.6845 33.7899 53.5684 33.7234L43.5195 29.0168C43.4361 28.9836 43.3655 28.9876 43.3076 29.0293C43.2493 29.0709 43.2202 29.1339 43.2202 29.2172V30.4437C43.2202 30.5772 43.2869 30.6689 43.4198 30.719L51.8227 34.5243C51.9225 34.5744 51.9225 34.6245 51.8227 34.6746L43.4198 38.4795C43.2869 38.5296 43.2202 38.6214 43.2202 38.7548V39.9817C43.2202 40.1319 43.2869 40.2068 43.4198 40.2068L43.4198 40.207Z" fill="white"/>
</svg>
