<svg width="72" height="73" viewBox="0 0 72 73" fill="none" xmlns="http://www.w3.org/2000/svg">
<path fill-rule="evenodd" clip-rule="evenodd" d="M36 0C16.11 0 0 16.3337 0 36.5C0 52.6512 10.305 66.2931 24.615 71.1294C26.415 71.4487 27.09 70.3537 27.09 69.3956C27.09 68.5287 27.045 65.6544 27.045 62.5975C18 64.2856 15.66 60.3619 14.94 58.3087C14.535 57.2594 12.78 54.02 11.25 53.1531C9.99 52.4687 8.19 50.7806 11.205 50.735C14.04 50.6894 16.065 53.3812 16.74 54.4762C19.98 59.9969 25.155 58.4456 27.225 57.4875C27.54 55.115 28.485 53.5181 29.52 52.6056C21.51 51.6931 13.14 48.545 13.14 34.5837C13.14 30.6144 14.535 27.3294 16.83 24.7744C16.47 23.8619 15.21 20.1206 17.19 15.1019C17.19 15.1019 20.205 14.1437 27.09 18.8431C29.97 18.0219 33.03 17.6112 36.09 17.6112C39.15 17.6112 42.21 18.0219 45.09 18.8431C51.975 14.0981 54.99 15.1019 54.99 15.1019C56.97 20.1206 55.71 23.8619 55.35 24.7744C57.645 27.3294 59.04 30.5687 59.04 34.5837C59.04 48.5906 50.625 51.6931 42.615 52.6056C43.92 53.7462 45.045 55.9362 45.045 59.3581C45.045 64.24 45 68.1637 45 69.3956C45 70.3537 45.675 71.4944 47.475 71.1294C61.695 66.2931 72 52.6056 72 36.5C72 16.3337 55.89 0 36 0Z" fill="#BEBEBE"/>
</svg>
