<svg width="72" height="73" viewBox="0 0 72 73" fill="none" xmlns="http://www.w3.org/2000/svg">
<path d="M65.25 1.7112H6.75C5.42268 1.69751 4.1442 2.21823 3.19511 3.15913C2.24601 4.10002 1.70382 5.38422 1.6875 6.72995V66.282C1.70677 67.6257 2.25026 68.907 3.19903 69.8454C4.14781 70.7839 5.4246 71.303 6.75 71.2893H65.25C66.5774 71.3 67.855 70.7775 68.8036 69.836C69.7522 68.8945 70.2947 67.6106 70.3125 66.2649V6.71284C70.2888 5.37106 69.7438 4.09298 68.7958 3.15641C67.8478 2.21983 66.5736 1.70047 65.25 1.7112V1.7112ZM22.0331 61.0237H11.8462V27.7916H22.0331V61.0237ZM16.9706 23.2633C15.8022 23.2644 14.6598 22.9142 13.6878 22.2569C12.7157 21.5996 11.9578 20.6647 11.51 19.5706C11.0621 18.4765 10.9443 17.2723 11.1716 16.1103C11.3988 14.9483 11.9609 13.8807 12.7867 13.0427C13.6124 12.2046 14.6648 11.6338 15.8107 11.4022C16.9565 11.1707 18.1444 11.289 19.2239 11.742C20.3035 12.1951 21.2262 12.9626 21.8755 13.9475C22.5247 14.9324 22.8712 16.0904 22.8712 17.275C22.8698 18.0624 22.7152 18.8417 22.4163 19.5684C22.1174 20.2951 21.6801 20.9549 21.1294 21.5101C20.5787 22.0652 19.9255 22.5048 19.207 22.8037C18.4886 23.1026 17.7191 23.2549 16.9425 23.2519L16.9706 23.2633ZM60.1875 61.0237H50.0006V44.8553C50.0006 41.0057 49.9331 36.0497 44.7075 36.0497C39.4819 36.0497 38.5931 40.2472 38.5931 44.6044V61.0237H28.4231V27.7916H38.1881V32.3541H38.3231C39.6844 29.7421 43.0031 26.9875 47.9588 26.9875C58.275 26.9646 60.1875 33.8483 60.1875 42.7737V61.0237Z" fill="#BEBEBE"/>
</svg>
