<svg width="91" height="91" viewBox="0 0 91 91" fill="none" xmlns="http://www.w3.org/2000/svg">
<path d="M13.2708 75.8327C11.7542 75.8327 10.4271 75.2639 9.28958 74.1264C8.15208 72.9889 7.58333 71.6619 7.58333 70.1452V20.8535C7.58333 19.3368 8.15208 18.0098 9.28958 16.8723C10.4271 15.7348 11.7542 15.166 13.2708 15.166H77.7292C79.2458 15.166 80.5729 15.7348 81.7104 16.8723C82.8479 18.0098 83.4167 19.3368 83.4167 20.8535V70.1452C83.4167 71.6619 82.8479 72.9889 81.7104 74.1264C80.5729 75.2639 79.2458 75.8327 77.7292 75.8327H13.2708ZM45.5 47.2056L13.2708 26.0671V70.1452H77.7292V26.0671L45.5 47.2056ZM45.5 41.5181L77.35 20.8535H13.7448L45.5 41.5181ZM13.2708 26.0671V20.8535V70.1452V26.0671Z" fill="#BEBEBE"/>
</svg>
