<svg width="316" height="316" viewBox="0 0 316 316" fill="none" xmlns="http://www.w3.org/2000/svg">
<circle cx="158" cy="158" r="158" fill="#62E3FF"/>
<path d="M71.9342 60.317C69.476 60.9117 65.868 63.0131 64.1234 64.9162C63.2512 65.8678 61.9428 67.8502 61.2687 69.3172L60 71.9736V136.046V200.078L61.467 203.091C63.2512 206.699 65.5508 208.919 69.2381 210.664L71.8945 211.933L102.345 212.052L132.755 212.171V221.607V231.083L127.918 231.241C123.834 231.4 122.724 231.559 121.059 232.391C118.561 233.581 116.142 235.96 114.913 238.497C114.001 240.321 113.922 240.995 113.803 247.497L113.644 254.515L114.675 255.546L115.666 256.537H158.13H200.593L201.585 255.506L202.615 254.515L202.457 247.497L202.338 240.479L200.99 237.982C199.483 235.246 197.818 233.62 195.003 232.272C193.576 231.598 192.307 231.4 188.382 231.241L183.505 231.083V221.607V212.171L213.955 212.052L244.405 211.933L247.418 210.466C251.026 208.681 253.246 206.382 254.991 202.695L256.26 200.038V136.006V71.9736L254.991 69.3172C253.246 65.6299 251.026 63.3303 247.418 61.5461L244.405 60.0791L158.962 59.9998C108.252 59.9998 72.8461 60.1187 71.9342 60.317ZM243.533 66.7004C245.713 67.3348 249.004 70.6256 249.638 72.8062C250.312 75.1851 250.312 196.827 249.638 199.205C249.004 201.386 245.713 204.677 243.533 205.311C241.154 206.025 75.1061 206.025 72.7271 205.311C70.5465 204.677 67.2557 201.386 66.6213 199.205C65.9473 196.827 65.9473 75.1851 66.6213 72.8062C67.216 70.7842 70.5465 67.3744 72.4893 66.74C74.5906 66.066 241.273 66.0264 243.533 66.7004ZM177.161 221.646V231.162H158.13H139.099V221.646V212.131H158.13H177.161V221.646ZM193.258 238.537C195.637 240.281 195.994 241.193 196.113 245.872L196.272 250.193H158.17H120.067V246.466C120.067 242.422 120.424 241.035 121.772 239.528C123.675 237.466 122.526 237.506 158.606 237.625C191.831 237.704 192.188 237.704 193.258 238.537Z" fill="white"/>
<path d="M73.4805 73.5596L72.4893 74.5111V129.662V184.813L73.4805 185.765L74.432 186.756H158.13H241.828L242.779 185.765L243.771 184.813V129.662V74.5111L242.779 73.5596L241.828 72.5684H158.13H74.432L73.4805 73.5596ZM237.427 129.662V180.412H158.13H78.833V129.662V78.9121H158.13H237.427V129.662Z" fill="white"/>
<path d="M86.168 86.2473L85.1768 87.1988V126.49V165.782L86.168 166.734L87.1195 167.725H134.579H182.038L183.782 169.35C185.884 171.254 189.611 173.117 192.584 173.672C196.034 174.306 210.664 174.188 213.439 173.474C223.589 170.817 229.894 160.43 227.316 150.478C225.929 145.244 223.153 141.715 217.404 137.909C214.867 136.204 214.074 135.411 213.241 133.825C212.25 131.883 212.25 131.803 212.052 118.838L211.854 105.794L210.902 105.041C210.268 104.525 209.356 104.287 207.849 104.287H205.708V95.7629C205.708 87.1988 205.708 87.1988 204.717 86.2473L203.765 85.2561H145.442H87.1195L86.168 86.2473ZM199.364 97.9436V104.287H197.223C195.717 104.287 194.805 104.525 194.17 105.041L193.219 105.794L193.021 118.838C192.822 131.803 192.822 131.883 191.831 133.825C190.998 135.411 190.205 136.204 187.668 137.909C185.923 139.059 183.663 140.843 182.633 141.834C178.192 146.196 176.17 153.412 177.716 159.319L178.232 161.381H134.896H91.5205V126.49V91.5998H145.442H199.364V97.9436ZM205.787 121.812C205.906 132.557 205.946 133.112 206.858 135.411C207.968 138.187 211.774 142.191 215.224 144.213L217.404 145.482L202.814 145.522C192.822 145.522 188.302 145.403 188.461 145.125C188.62 144.887 189.69 144.174 190.84 143.5C193.774 141.834 197.104 138.187 198.214 135.332C199.087 133.151 199.166 132.438 199.285 121.812L199.404 110.631H202.536H205.668L205.787 121.812ZM221.409 153.293C222.321 158.288 219.188 164.077 214.232 166.535C212.29 167.527 212.091 167.527 202.536 167.527C192.981 167.527 192.783 167.527 190.84 166.535C185.844 164.077 182.712 158.328 183.663 153.293L183.941 151.865H202.536H221.131L221.409 153.293Z" fill="white"/>
<path d="M139.099 101.115V104.287H162.888H186.677V101.115V97.9434H162.888H139.099V101.115Z" fill="white"/>
<path d="M123.239 104.802C121.297 105.437 117.966 108.847 117.371 110.869C116.777 112.93 116.777 114.873 117.332 116.578C117.807 117.847 117.768 117.886 114.596 121.019C111.464 124.19 111.424 124.23 110.155 123.754C106.904 122.644 103.574 123.516 100.838 126.292C96.7938 130.296 96.7938 135.371 100.838 139.376C104.842 143.42 109.917 143.42 113.922 139.376C116.697 136.64 117.57 133.31 116.459 130.058C115.984 128.79 116.023 128.75 119.195 125.618C122.327 122.446 122.367 122.406 123.636 122.882C125.301 123.437 127.521 123.437 129.187 122.882L130.455 122.406L139.931 131.882C147.583 139.534 149.407 141.517 149.209 142.151C148.614 144.094 148.535 146.473 149.05 148.178C149.724 150.636 152.857 153.847 155.196 154.561C158.923 155.671 161.897 154.878 164.672 152.063C168.716 148.059 168.716 142.984 164.672 138.979C161.936 136.204 158.606 135.332 155.355 136.442L154.086 136.918L144.61 127.442C136.958 119.789 135.134 117.807 135.332 117.173C136.482 113.446 135.768 110.234 133.27 107.459C130.693 104.604 127.006 103.613 123.239 104.802ZM128.592 111.622C130.574 113.565 129.187 116.974 126.411 116.974C124.786 116.974 123.239 115.428 123.239 113.803C123.239 112.177 124.786 110.631 126.411 110.631C127.164 110.631 127.997 110.988 128.592 111.622ZM109.561 130.653C111.543 132.596 110.155 136.006 107.38 136.006C105.754 136.006 104.208 134.459 104.208 132.834C104.208 131.208 105.754 129.662 107.38 129.662C108.133 129.662 108.966 130.019 109.561 130.653ZM160.311 143.341C160.945 143.935 161.302 144.768 161.302 145.521C161.302 146.275 160.945 147.107 160.311 147.702C158.368 149.684 154.958 148.297 154.958 145.521C154.958 143.896 156.504 142.349 158.13 142.349C158.883 142.349 159.716 142.706 160.311 143.341Z" fill="white"/>
<path d="M145.442 113.803V116.975H166.06H186.677V113.803V110.631H166.06H145.442V113.803Z" fill="white"/>
<path d="M151.786 126.49V129.662H169.231H186.677V126.49V123.318H169.231H151.786V126.49Z" fill="white"/>
<path d="M224.739 88.4277V91.5996H227.911H231.083V88.4277V85.2559H227.911H224.739V88.4277Z" fill="white"/>
<path d="M212.052 97.9434V101.115H215.224H218.396V97.9434V94.7715H215.224H212.052V97.9434Z" fill="white"/>
<path d="M221.567 110.631V113.803H224.739H227.911V110.631V107.459H224.739H221.567V110.631Z" fill="white"/>
<path d="M224.739 196.271V199.443H227.911H231.083V196.271V193.1H227.911H224.739V196.271Z" fill="white"/>
<path d="M237.427 196.271V199.443H240.599H243.771V196.271V193.1H240.599H237.427V196.271Z" fill="white"/>
</svg>
