<svg width="73" height="78" viewBox="0 0 73 78" fill="none" xmlns="http://www.w3.org/2000/svg">
<path d="M14.4534 32.0196C13.0057 30.4799 13.0952 28.9034 14.4534 27.6984L34.1903 15.2682C35.5982 14.1645 36.7725 14.1645 38.1364 15.2682L57.8733 27.6984C59.4539 29.1907 59.2755 30.7672 57.8733 32.0196L38.1364 44.4518C36.9892 45.3513 35.5982 45.4652 34.1903 44.4518L14.4534 32.0196ZM38.38 50.5165C37.0887 51.5068 35.5198 51.6324 33.9397 50.5165L13.6414 38.0199C13.2009 39.0102 13.4191 40.1244 14.4538 41.2265L34.1908 53.6567C35.5987 54.67 36.9896 54.5561 38.1368 53.6567L57.8738 41.2265C58.9367 40.2792 59.2929 39.1403 58.7144 37.9953L38.38 50.5165ZM38.38 59.7237C37.0887 60.7123 35.5198 60.8383 33.9397 59.7237L13.6414 47.225C13.2009 48.2152 13.4191 49.3278 14.4538 50.4315L34.1908 62.8638C35.5987 63.8755 36.9896 63.7616 38.1368 62.8638L57.8738 50.4315C58.9367 49.4842 59.2929 48.3469 58.7144 47.2019L38.38 59.7237Z" fill="#62E3FF"/>
</svg>
