<svg width="55" height="55" viewBox="0 0 55 55" fill="none" xmlns="http://www.w3.org/2000/svg">
<path d="M27.291 0.177811C24.8803 6.0876 23.4165 9.9585 20.7333 15.6929C22.3782 17.4368 24.4005 19.4608 27.6811 21.7547C24.1543 20.3036 21.7504 18.8507 19.9532 17.3387C16.5186 24.5056 11.1337 34.711 0.214081 54.3316C8.79408 49.3783 15.4465 46.322 21.6455 45.156C21.3798 44.0128 21.2385 42.7707 21.2486 41.4803L21.2554 41.2095C21.3916 35.7112 24.2525 31.483 27.6413 31.7698C31.0293 32.0567 33.6676 36.7486 33.5314 42.2477C33.5052 43.2834 33.385 44.2785 33.1811 45.2025C39.3132 46.4023 45.9022 49.4443 54.3679 54.3316C52.6985 51.2584 51.2033 48.489 49.7801 45.8498C47.5386 44.1127 45.2015 41.8526 40.4326 39.4047C43.7106 40.2567 46.0595 41.2417 47.8889 42.34C33.4214 15.4027 32.252 11.8209 27.291 0.177811V0.177734V0.177811Z" fill="white"/>
<path d="M42.5328 32.3639C30.7949 16.4333 28.0745 3.59296 27.3849 0.527344C33.6465 14.9687 33.6033 15.1463 42.5328 32.3639Z" fill="white"/>
<path d="M27.3968 0.388672C27.0921 1.13708 26.8045 1.86673 26.5235 2.55694C26.2155 3.31391 25.916 4.04321 25.6249 4.7517C25.3338 5.46018 25.0385 6.13169 24.7525 6.8142C24.4657 7.49662 24.1992 8.17134 23.9064 8.8503C23.6136 9.52891 23.2921 10.2151 22.9807 10.9124C22.6693 11.6104 22.3444 12.3153 22.0025 13.0548C21.6607 13.7935 21.3019 14.5788 20.9178 15.3818C20.8662 15.4901 20.8128 15.6153 20.7595 15.7253C22.4002 17.4633 24.4234 19.4712 27.687 21.7541C24.1611 20.303 21.7639 18.8501 19.9658 17.3381C19.8728 17.5293 19.7983 17.6977 19.7018 17.8931C19.3465 18.6301 18.9648 19.3595 18.5646 20.1676C18.469 20.3571 18.3988 20.5289 18.3006 20.7227C17.8767 21.5722 17.4325 22.4514 16.9518 23.3931C16.8562 23.5793 16.7589 23.7333 16.6608 23.922C16.3705 24.4864 15.4423 26.2658 14.4929 28.0741C13.9387 29.1301 13.5038 29.9948 12.8793 31.1676C12.7025 31.5044 12.3386 32.1788 12.2447 32.3573C19.1197 28.4878 26.5371 22.8668 40.0095 27.6772C39.3352 26.3995 38.6878 25.2073 38.1057 24.0811C37.5235 22.954 36.9955 21.9056 36.4929 20.908C35.9903 19.9104 35.5258 18.9694 35.0908 18.0784C34.6568 17.1874 34.254 16.3464 33.8749 15.54C33.4958 14.7336 33.1261 13.9577 32.791 13.2131C32.4551 12.4693 32.1428 11.7492 31.8391 11.0452C31.5353 10.3404 31.251 9.6423 30.9658 8.95606C30.6815 8.26941 30.3972 7.61102 30.1197 6.91996C29.9995 6.61924 29.8971 6.29906 29.7761 5.99444C29.0248 4.2303 28.2878 2.48163 27.3968 0.388672V0.388689V0.388672Z" fill="url(#paint0_linear_2_433)"/>
<defs>
<linearGradient id="paint0_linear_2_433" x1="27.4148" y1="8.9959" x2="18.2612" y2="24.769" gradientUnits="userSpaceOnUse">
<stop stop-color="white" stop-opacity="0"/>
<stop offset="1" stop-color="white" stop-opacity="0.27451"/>
</linearGradient>
</defs>
</svg>
