<svg width="55" height="55" viewBox="0 0 55 55" fill="none" xmlns="http://www.w3.org/2000/svg">
<path d="M50.4883 14.3945L50.6172 14.3086C50.3594 13.8359 49.9727 13.4063 49.5859 13.1914L28.832 1.24609C28.4883 1.03125 28.0156 0.945312 27.5 0.945312C26.9844 0.945312 26.5117 1.07422 26.168 1.24609L5.54297 13.2344C4.8125 13.6641 4.29688 14.7383 4.29688 15.5547V39.4883C4.29688 39.9609 4.38281 40.4766 4.68359 40.9492L4.59766 40.9922C4.8125 41.3359 5.11328 41.6367 5.41406 41.8086L26.125 53.7969C26.4687 54.0117 26.9414 54.0977 27.457 54.0977C27.9727 54.0977 28.4453 53.9688 28.7891 53.7969L49.4141 41.8086C50.1445 41.3789 50.6602 40.3047 50.6602 39.4883V15.5117C50.7031 15.168 50.6602 14.7813 50.4883 14.3945ZM27.5 38.0273C31.4102 38.0273 34.8477 35.8789 36.6523 32.6992L42.1953 35.9648C39.2734 41.0352 33.7734 44.4727 27.5 44.4727C18.1328 44.4727 10.5273 36.8672 10.5273 27.5C10.5273 18.1328 18.1328 10.5273 27.5 10.5273C33.8164 10.5273 39.3164 14.0078 42.2383 19.1211L36.6523 22.3438C34.8477 19.1211 31.4102 16.9727 27.5 16.9727C21.6992 16.9727 16.9727 21.6992 16.9727 27.5C16.9727 33.3008 21.6992 38.0273 27.5 38.0273Z" fill="white"/>
</svg>
