<svg width="55" height="55" viewBox="0 0 55 55" fill="none" xmlns="http://www.w3.org/2000/svg">
<path d="M3.76407 0.429688L8.08458 48.9341L27.4712 54.3396L46.912 48.9143L51.2359 0.429688H3.76407ZM42.2602 11.5423L40.822 27.7007L40.8263 27.7879L40.8203 27.9886V27.9868L39.7985 39.285L39.6859 40.2888L27.5 43.6593V43.6597L27.4906 43.6679L15.3257 40.2785L14.502 30.9375H20.4673L20.8906 35.6873L27.5017 37.4791L27.5 37.4825V37.4816L34.1357 35.6645L34.8369 27.9297H20.9653L20.8463 26.6221L20.5752 23.5589L20.4329 21.9141H35.3641L35.9073 15.8984H13.1656L13.0466 14.5918L12.7759 11.5277L12.6332 9.88281H42.4024L42.2602 11.5423V11.5423Z" fill="white"/>
</svg>
