<svg width="55" height="55" viewBox="0 0 55 55" fill="none" xmlns="http://www.w3.org/2000/svg">
<path d="M37.2109 10.7423L38.5 10.7853C38.9727 10.8283 39.4453 10.9142 39.9609 11.0002L38.8867 7.82047L32.5273 1.50407C31.0664 0.043129 29.0898 -0.386558 28.0586 0.515785L12.5469 10.7853L37.2109 10.7423ZM39.832 12.2892C39.3164 12.2033 38.8437 12.1173 38.4141 12.0744L37.168 12.0314L13.1055 12.0744L46.8789 45.8478L49.5 39.9181L39.832 12.2892V12.2892ZM12.418 39.6173L40.0469 49.3713L45.9766 46.7502L12.2031 12.9767V37.0822L12.2461 38.2423C12.2461 38.6291 12.2891 39.1017 12.418 39.6173V39.6173Z" fill="white"/>
<path d="M45.9336 14.7383C44.8164 13.6211 42.9258 12.5469 41.0781 11.9453L50.875 39.9609L47.9102 46.707L54.6992 44.4727V23.5469L45.9336 14.7383ZM40.1328 50.7461L12.2031 40.9062C12.8047 42.7539 13.8359 44.6445 14.9961 45.8047L24.1484 54.9141L44.6016 54.957L46.8789 47.7812L40.1328 50.7461ZM10.957 38.2852L10.9141 37.125V12.418L0.730473 27.9727C-0.171871 28.918 0.300785 30.9375 1.71875 32.4414L8.03516 38.8008L11.1719 39.918C11.043 39.3594 10.957 38.8437 10.957 38.2852Z" fill="white"/>
</svg>
