<svg width="55" height="55" viewBox="0 0 55 55" fill="none" xmlns="http://www.w3.org/2000/svg">
<path d="M34.6328 17.3161H34.8047L34.7188 17.2302L40.7344 11.2145V11.0856C35.6641 6.61688 28.6602 5.07001 22.1719 7.0036C15.6836 8.9372 10.6992 14.0934 8.89453 20.6247C8.98047 20.5817 9.10937 20.5388 9.23828 20.5388C11.4727 19.0778 14.1367 18.2184 16.9297 18.2184C17.875 18.2184 18.7773 18.3044 19.6797 18.4763C19.7227 18.4333 19.7656 18.4333 19.8086 18.4333C23.6758 14.1794 30.207 13.6638 34.6758 17.3161H34.6328Z" fill="white"/>
<path d="M46.4492 20.5391C45.4609 16.8867 43.3984 13.5781 40.5195 11.043L34.375 17.1445C36.9531 19.25 38.457 22.4297 38.3711 25.7383V26.8125C45.6328 26.8125 45.6328 37.6406 38.3711 37.6406H27.457V46.2344H27.4141L27.457 46.3203H38.3711C44.6445 46.3633 50.1875 42.3242 52.0352 36.3945C53.8828 30.4648 51.6055 24.0195 46.4492 20.5391Z" fill="white"/>
<path d="M16.7578 46.3633H28.0586V37.6836H16.7578C15.9414 37.6836 15.168 37.5117 14.4375 37.2109L7.90625 43.4844V43.5703C10.4844 45.418 13.5781 46.4063 16.8008 46.4063L16.7578 46.3633Z" fill="white"/>
<path d="M17.2734 18.0039C10.8711 18.0469 5.19922 22 3.13672 27.8008C1.07422 33.6445 3.13672 40.0469 8.20704 43.8281L14.9102 37.4258C11.2148 35.8359 10.3555 31.1953 13.1914 28.4883C16.0273 25.7383 20.8398 26.5977 22.5156 30.1211L29.2188 23.7187C26.3828 20.1523 21.957 18.0469 17.2734 18.0898V18.0039Z" fill="white"/>
</svg>
