<svg width="55" height="55" viewBox="0 0 55 55" fill="none" xmlns="http://www.w3.org/2000/svg">
<path fill-rule="evenodd" clip-rule="evenodd" d="M48.9083 44.9431C48.137 44.308 47.349 43.688 46.6275 42.9987C45.824 42.2317 45.3191 41.304 45.4291 40.1293C45.4923 39.4534 45.3363 38.872 44.5212 38.646C44.7129 38.1501 44.8925 37.8176 44.9651 37.4631C45.0459 37.0678 45.0416 36.6522 45.0527 36.2453C45.1662 31.9656 43.6202 28.214 41.3304 24.7147C40.2759 23.1042 39.1746 21.5225 38.0505 19.9598C36.2923 17.5157 35.6619 14.77 35.6301 11.8039C35.6121 10.4346 35.4565 9.07067 35.1656 7.73256C34.6014 5.13725 33.211 3.10784 30.6891 2.01944C28.7568 1.18499 26.7566 1.01956 24.7161 1.55366C21.7508 2.32924 19.9577 4.53311 19.9912 7.6071C20.023 10.5655 20.1704 13.5278 20.3874 16.4793C20.5111 18.1521 20.2533 19.5954 19.1434 20.9223C18.0761 22.198 17.1213 23.5743 16.1966 24.96C15.6686 25.7524 15.2011 26.6156 14.8745 27.5085C13.985 29.9418 13.1673 32.3953 11.7481 34.5983C11.2221 35.4147 11.1624 36.3283 11.5358 37.262C11.6325 37.5039 11.6918 37.876 11.5741 38.0706C10.5626 39.7494 9.4209 41.2267 7.24883 41.549C5.54039 41.8029 5.45617 42.1136 5.50816 43.8749C5.55113 45.3087 5.53437 46.7559 5.38785 48.1808C5.23187 49.7083 5.39129 50.1234 6.86684 50.4895C10.2717 51.3351 13.7045 52.0565 16.9611 53.4346C18.3477 54.0211 19.739 53.8174 20.8557 52.677C22.0215 51.4864 23.4945 51.0206 25.0856 51.0189C27.7862 51.0167 30.4876 51.1469 33.1895 51.1774C33.9208 51.186 34.3406 51.458 34.635 52.1223C34.9959 52.9357 35.6061 53.5334 36.5449 53.6374C38.3466 53.8359 39.988 53.5686 41.3531 52.194C43.0366 50.4976 44.978 49.1579 47.2033 48.2293C47.8401 47.9633 48.44 47.5453 48.9663 47.0915C49.925 46.2657 49.8743 45.7397 48.9083 44.9431V44.9431ZM26.8237 10.364C27.1494 9.24635 27.9138 8.52104 29.0765 8.30104C30.0545 8.11628 30.8825 8.59667 31.4995 9.69581C32.1638 10.8809 32.3821 12.1192 31.8149 13.416C31.3496 14.4791 31.1313 14.5792 30.0433 14.2187C29.8397 14.1512 29.6407 14.0713 29.2798 13.9385C29.584 13.6833 29.7756 13.4938 29.9948 13.3447C30.482 13.013 30.6187 12.5464 30.5731 11.9921C30.5134 11.2642 29.9411 10.6196 29.3541 10.6278C28.8277 10.6351 28.3822 11.1292 28.3229 11.8803C28.2859 12.3483 28.3637 12.8252 28.3972 13.4225C26.9165 12.9829 26.3729 11.9078 26.8237 10.364V10.364ZM21.3452 9.39674C21.8926 8.56831 22.7189 8.40245 23.537 8.95674C24.4088 9.54799 25.0611 11.2152 24.7242 12.2121C24.6018 12.5747 24.24 12.8566 23.9869 13.175L23.7273 13.0143C23.6285 12.4759 23.6088 11.9035 23.4021 11.4103C23.2714 11.0974 22.862 10.9015 22.5775 10.6532C22.3102 10.9707 21.85 11.2732 21.8225 11.6105C21.7847 12.0763 22.0275 12.5902 22.2389 13.0418C22.3725 13.3258 22.669 13.5338 22.975 13.8651L22.1491 14.5139C20.8523 13.3537 20.4669 10.724 21.3452 9.39674V9.39674ZM37.5289 36.9853C37.4417 38.1042 37.3141 38.151 36.1891 38.3164C35.3904 38.4333 35.1755 38.6413 35.1351 39.59C35.0911 40.7 35.0894 41.8113 35.13 42.9214C35.1562 43.6819 34.8992 44.2783 34.3759 44.809C31.4695 47.7549 27.9972 49.151 23.8434 48.6444C22.0516 48.4257 20.8802 47.3351 19.9345 45.7917C20.3556 45.6357 20.6671 45.5309 20.9709 45.4076C22.3124 44.8619 22.5633 43.7082 21.4921 42.7104C20.6826 41.9555 19.7794 41.2998 18.911 40.6084C18.0714 39.9402 17.2206 39.2858 16.3797 38.6194C15.663 38.0509 15.3893 37.3183 15.3721 36.3901C15.3317 34.1635 15.7897 32.0804 16.7204 30.0535C17.5506 28.245 18.1938 26.3509 18.9716 24.517C19.3733 23.5708 19.7905 22.6028 20.3801 21.7722C20.9468 20.9755 21.297 20.1956 21.2343 19.2198C21.1982 18.6715 21.2274 18.119 21.2274 17.5685L21.5312 17.4173C22.0215 17.8405 22.5204 18.2548 23.002 18.6887C24.7401 20.2554 26.3931 20.3271 28.2954 18.9766C29.1066 18.4004 29.984 17.9153 30.8421 17.4074C31.0557 17.2811 31.3113 17.2256 31.6731 17.0903C32.5974 19.2671 33.5045 21.4014 34.4124 23.5356C34.873 24.6201 35.2425 25.7558 35.8149 26.7785C36.9626 28.8302 37.5732 30.995 37.5637 33.3407C37.5586 34.5567 37.6226 35.777 37.5289 36.9853V36.9853Z" fill="white"/>
</svg>
