<svg width="55" height="55" viewBox="0 0 55 55" fill="none" xmlns="http://www.w3.org/2000/svg">
<path d="M21.1965 26.641H33.7257C37.2135 26.641 39.9609 23.6899 39.9609 20.1876V8.24312C39.9609 4.84343 37.1112 2.28937 33.7068 1.72218C31.5524 1.36339 29.3262 1.20011 27.1812 1.21042C25.037 1.2203 23.051 1.40292 21.2493 1.72218C15.9405 2.65933 15.0391 4.623 15.0391 8.24312V12.891H27.5V14.6098H10.2162C6.57078 14.6098 3.3782 16.8046 2.38004 20.9739C1.22805 25.752 1.17691 28.6735 2.38004 33.6626C3.27164 37.3759 5.40074 39.9614 9.04664 39.9614H13.3203V34.3548C13.3203 30.2139 16.9417 26.641 21.1965 26.641ZM20.4067 9.83597C19.1065 9.83597 18.0529 8.77077 18.0529 7.45335C18.0529 6.13034 19.1061 5.05526 20.4067 5.05526C21.7022 5.05526 22.761 6.13034 22.761 7.45335C22.7605 8.77077 21.7018 9.83597 20.4067 9.83597ZM52.5426 20.9739C51.6411 17.3439 49.9202 14.6098 46.2696 14.6098H41.6797V20.1876C41.6797 24.5059 37.901 27.9301 33.7257 27.9301H21.1965C17.7641 27.9301 15.0391 31.078 15.0391 34.5155V46.4608C15.0391 49.8596 17.9373 51.8594 21.2532 52.8348C25.2244 54.0023 28.985 54.2132 33.7361 52.8348C36.8938 51.92 39.9609 50.0801 39.9609 46.4608V41.6801H27.5V39.9614H46.2696C49.9151 39.9614 51.2742 37.4795 52.5426 33.6621C53.8519 29.7326 53.7956 26.0141 52.5426 20.9739V20.9739ZM34.5151 44.8671C35.8157 44.8671 36.8693 45.9323 36.8693 47.2506C36.8693 48.5723 35.8162 49.6478 34.5151 49.6478C33.2196 49.6478 32.1612 48.5727 32.1612 47.2506C32.1612 45.9323 33.2196 44.8671 34.5151 44.8671Z" fill="white"/>
</svg>
