<svg width="55" height="55" viewBox="0 0 55 55" fill="none" xmlns="http://www.w3.org/2000/svg">
<path d="M35.707 34.5895C33.6875 34.5466 31.9258 36.0505 31.7109 38.07C31.7109 38.1559 31.7539 38.1989 31.8398 38.1989H39.5742C39.6602 38.1989 39.7031 38.1559 39.7031 38.07C39.5312 36.0075 37.7695 34.4606 35.707 34.5895Z" fill="white"/>
<path d="M52.293 8.55078L35.793 27.0273C35.6211 27.2422 35.2773 27.2422 35.0625 27.0703L35.0195 27.0273L26.6836 18.3906C26.5117 18.2187 26.5117 17.9609 26.6406 17.7461L29.4336 14.1797C29.6055 13.9648 29.9062 13.8789 30.1211 14.0508C30.1641 14.0938 30.207 14.0938 30.207 14.1367L34.9336 19.3359C35.1055 19.5508 35.4492 19.5508 35.6641 19.3789L35.707 19.3359L48.8984 1.41797C49.0273 1.24609 48.9844 1.03125 48.8125 0.902344C48.7695 0.859375 48.6836 0.859375 48.5977 0.816406H2.44922C2.23437 0.859375 2.0625 1.03125 2.0625 1.24609V53.7539C2.0625 53.9687 2.23437 54.1406 2.44922 54.1406H52.5508C52.7656 54.1406 52.9375 53.9687 52.9375 53.7539V8.80859C52.9375 8.59375 52.7656 8.46484 52.5937 8.46484C52.4648 8.42188 52.3789 8.46484 52.293 8.55078ZM16.2852 48.2969C12.9766 48.4258 9.75391 47.3086 7.30469 45.1172C7.13281 44.9453 7.08984 44.6875 7.26172 44.4727L9.19531 41.7227C9.36719 41.5078 9.66797 41.4648 9.88281 41.5938L9.92578 41.6367C11.7305 43.3125 14.0508 44.2148 16.5 44.2148C19.0781 44.2148 20.3242 43.0117 20.3242 41.7656C20.3242 37.8555 7.64844 40.5625 7.64844 32.2695C7.64844 28.6172 10.8281 25.5664 15.9844 25.5664C18.9492 25.4805 21.8711 26.4687 24.1914 28.3594C24.3633 28.5312 24.4063 28.832 24.2344 29.0039L22.2148 31.668C22.043 31.8828 21.7422 31.9258 21.5273 31.7539C19.8086 30.3789 17.7031 29.6484 15.5117 29.6914C13.4922 29.6914 12.375 30.5937 12.375 31.8828C12.375 35.3633 25.0078 33.043 25.0078 41.25C25.0508 45.2461 22.1719 48.2969 16.2852 48.2969ZM43.9141 40.6484C43.9141 40.9062 43.6992 41.0781 43.4844 41.0781H31.9258C31.8398 41.0781 31.7969 41.1211 31.7969 41.207C32.1836 43.4414 34.2031 44.9883 36.4805 44.8594C37.9414 44.8164 39.3164 44.3867 40.4766 43.5273C40.6484 43.3984 40.9492 43.3984 41.0781 43.6133L41.1211 43.6562L42.5391 45.7188C42.668 45.8906 42.625 46.1484 42.4531 46.3203C40.6055 47.6953 38.3281 48.3828 36.0508 48.2969C31.0664 48.2969 27.3281 44.9453 27.3281 39.7031C27.1992 35.1055 30.8086 31.2812 35.4062 31.1523H35.793C40.6484 31.1523 44 34.8047 44 40.1328L43.9141 40.6484Z" fill="white"/>
</svg>
