<svg width="55" height="55" viewBox="0 0 55 55" fill="none" xmlns="http://www.w3.org/2000/svg">
<g clip-path="url(#clip0_2_353)">
<path d="M25.5441 0H34.5374V41.6281C29.9239 42.5047 26.5366 42.8549 22.8581 42.8549C11.8791 42.8545 6.15613 37.8916 6.15613 28.3723C6.15613 19.2036 12.2298 13.2473 21.6313 13.2473C23.0914 13.2473 24.2009 13.3641 25.5441 13.7143V0ZM25.5441 20.9537C24.493 20.6035 23.6169 20.4871 22.5075 20.4871C17.9528 20.4871 15.3244 23.2899 15.3244 28.1952C15.3244 32.9841 17.8359 35.6116 22.4494 35.6116C23.4416 35.6116 24.2593 35.5532 25.5441 35.3787V20.9537Z" fill="white"/>
<path d="M48.8434 13.8881V34.7361C48.8434 41.9192 48.3175 45.3644 46.741 48.3426C45.2809 51.2047 43.3538 53.0146 39.383 55.0002L31.032 51.0294C35.0032 49.1603 36.9299 47.5262 38.1563 45.0138C39.441 42.4447 39.8505 39.4665 39.8505 31.6411V13.8881H48.8434ZM39.8501 0.0478516H48.8434V9.27496H39.8501V0.0478516Z" fill="white"/>
</g>
<defs>
<clipPath id="clip0_2_353">
<rect width="55" height="55" fill="white"/>
</clipPath>
</defs>
</svg>
