<svg width="55" height="55" viewBox="0 0 55 55" fill="none" xmlns="http://www.w3.org/2000/svg">
<path d="M11.752 34.5986L16.341 5.19081C16.5 4.18964 17.8449 3.94901 18.3176 4.84706L23.2504 14.0767L11.752 34.5986V34.5986ZM44.3824 41.7443L40.0039 14.6568C39.8707 13.8146 38.818 13.4709 38.2121 14.0767L10.6176 41.7443L25.8887 50.3166C26.3612 50.5766 26.8919 50.713 27.4313 50.713C27.9706 50.713 28.5013 50.5766 28.9738 50.3166L44.3824 41.7443V41.7443ZM31.9859 18.1115L28.4496 11.3869C28.0543 10.6221 26.9715 10.6221 26.5762 11.3869L11.043 39.0803L31.9859 18.1115V18.1115Z" fill="white"/>
</svg>
