<svg width="72" height="73" viewBox="0 0 72 73" fill="none" xmlns="http://www.w3.org/2000/svg">
<g clip-path="url(#clip0_2_816)">
<path d="M36 6.57913C45.612 6.57913 46.752 6.61563 50.55 6.79204C60.306 7.24221 64.863 11.9355 65.307 21.754C65.481 25.6017 65.514 26.7575 65.514 36.503C65.514 46.2516 65.478 47.4044 65.307 51.2521C64.86 61.0615 60.315 65.7639 50.55 66.214C46.752 66.3905 45.618 66.427 36 66.427C26.388 66.427 25.248 66.3905 21.453 66.214C11.673 65.7608 7.14 61.0463 6.696 51.249C6.522 47.4013 6.486 46.2485 6.486 36.5C6.486 26.7545 6.525 25.6017 6.696 21.751C7.143 11.9355 11.688 7.23917 21.453 6.789C25.251 6.61563 26.388 6.57913 36 6.57913V6.57913ZM36 0C26.223 0 24.999 0.0425833 21.159 0.219C8.085 0.827333 0.819 8.18208 0.219 21.4498C0.042 25.3462 0 26.5872 0 36.5C0 46.4128 0.042 47.6568 0.216 51.5502C0.816 64.8058 8.07 72.1727 21.156 72.781C24.999 72.9574 26.223 73 36 73C45.777 73 47.004 72.9574 50.844 72.781C63.906 72.1727 71.19 64.8179 71.781 51.5502C71.958 47.6568 72 46.4128 72 36.5C72 26.5872 71.958 25.3462 71.784 21.4529C71.196 8.20946 63.933 0.830375 50.847 0.222042C47.004 0.0425833 45.777 0 36 0V0ZM36 17.7572C25.791 17.7572 17.514 26.1492 17.514 36.5C17.514 46.8508 25.791 55.2458 36 55.2458C46.209 55.2458 54.486 46.8538 54.486 36.5C54.486 26.1492 46.209 17.7572 36 17.7572ZM36 48.6667C29.373 48.6667 24 43.2221 24 36.5C24 29.781 29.373 24.3333 36 24.3333C42.627 24.3333 48 29.781 48 36.5C48 43.2221 42.627 48.6667 36 48.6667ZM55.218 12.6381C52.83 12.6381 50.895 14.6 50.895 17.0181C50.895 19.4362 52.83 21.3981 55.218 21.3981C57.603 21.3981 59.535 19.4362 59.535 17.0181C59.535 14.6 57.603 12.6381 55.218 12.6381Z" fill="#BEBEBE"/>
</g>
<defs>
<clipPath id="clip0_2_816">
<rect width="72" height="73" fill="white"/>
</clipPath>
</defs>
</svg>
