<svg width="55" height="55" viewBox="0 0 55 55" fill="none" xmlns="http://www.w3.org/2000/svg">
<path d="M42.9073 24.9775C41.7799 24.9775 40.8672 25.8901 40.8672 27.0175V41.5655C40.8672 45.5918 37.5926 48.8662 33.5662 48.8662L13.4346 48.8667C9.40807 48.8667 6.13355 45.5922 6.13355 41.5659V21.4885C6.13355 17.4621 9.40818 14.1877 13.4346 14.1877H27.9832C29.1106 14.1877 30.0232 13.2751 30.0232 12.1478C30.0232 11.0204 29.1106 10.1078 27.9832 10.1078H13.4346C7.09972 10.0538 2 15.2075 2 21.4887V41.6194C2 47.9 7.09983 53.0003 13.4346 53.0003H33.5662C39.8475 53.0003 45.0008 47.9006 45.0008 41.5661L45.0012 27.0714C44.9472 25.9441 44.0346 24.9779 42.9071 24.9779L42.9073 24.9775Z" fill="white"/>
<path d="M50.9604 2.00045H36.0355C34.9081 2.00045 33.9954 2.91305 33.9954 4.04039C33.9954 5.16773 34.9081 6.08033 36.0355 6.08033H46.0209L24.9223 27.178C24.1169 27.9834 24.1169 29.2715 24.9223 30.0769C25.2983 30.4528 25.835 30.6676 26.3717 30.6676C26.9083 30.6676 27.4455 30.4528 27.821 30.0769L48.9195 8.97927V18.9643C48.9195 20.0916 49.8321 21.0042 50.9595 21.0042C52.0869 21.0042 52.9995 20.0916 52.9995 18.9643L53 4.03994C53 2.91259 52.0874 2 50.96 2L50.9604 2.00045Z" fill="white"/>
</svg>
