<svg width="78" height="78" viewBox="0 0 78 78" fill="none" xmlns="http://www.w3.org/2000/svg">
<circle cx="39" cy="39" r="39" fill="#62E3FF"/>
<path d="M13.8228 17.0318V53.0239H31.3373V57.9318C29.8778 57.9462 28.4183 57.9597 26.9588 57.9831V63.9305H51.0412V57.8975C49.5816 57.924 48.1221 57.924 46.6626 57.9317V53.0238H64.1772V17.0317H13.8234L13.8228 17.0318ZM16.0118 19.2129H61.9866V47.0257H16.0118V19.2129ZM17.1065 21.394V44.8437H58.7024V42.6626H19.2954V32.0283V21.3939L17.1065 21.394ZM52.1346 21.4111V23.5922H60.8916V21.4111H52.1346ZM52.1346 25.7739V27.955H58.7021V25.7739H52.1346ZM52.1349 30.1366V32.3177H60.892V30.1366H52.1349ZM52.1359 34.4993V36.6804H60.893V34.4993H52.1359ZM48.8521 60.0965V61.7495H29.1487V60.1306L31.3377 60.1135V60.6587H46.6622V60.1135L48.8521 60.0965Z" fill="white"/>
<path d="M35.9385 34.6641C34.619 34.665 33.3798 34.0318 32.6106 32.9635C31.8415 31.8952 31.6367 30.5225 32.0607 29.2775C32.4845 28.0323 33.4852 27.0673 34.7479 26.6857C36.0108 26.3041 37.3809 26.5529 38.4274 27.3537C39.4741 28.1546 40.0687 29.4093 40.0247 30.7233C39.9806 32.0375 39.3032 33.2497 38.2054 33.9791C37.534 34.425 36.7455 34.6635 35.9385 34.6642L35.9385 34.6641ZM35.9385 27.3255C35.0332 27.3302 34.1705 27.7086 33.5554 28.3701C32.94 29.0317 32.6273 29.9175 32.6912 30.8171C32.7551 31.7169 33.1899 32.55 33.8927 33.1186C34.4392 33.5475 35.1064 33.7952 35.8013 33.8275C36.4959 33.8596 37.1834 33.6745 37.7675 33.2981C38.6444 32.7127 39.1844 31.7421 39.2177 30.691C39.251 29.6399 38.7734 28.6372 37.9354 27.998C37.3641 27.5572 36.661 27.3205 35.9385 27.3255L35.9385 27.3255Z" fill="white"/>
<path d="M42.4855 23.6566C42.0513 23.6566 41.6351 23.4849 41.3281 23.1791C41.0212 22.8732 40.8486 22.4583 40.8486 22.0259C40.8486 21.5933 41.0212 21.1786 41.3281 20.8728C41.6351 20.567 42.0513 20.395 42.4855 20.395C42.9194 20.395 43.3356 20.567 43.6425 20.8728C43.9497 21.1786 44.1221 21.5933 44.1221 22.0259C44.1221 22.4583 43.9497 22.8732 43.6425 23.1791C43.3356 23.4849 42.9194 23.6566 42.4855 23.6566V23.6566ZM42.4855 21.2105C42.2684 21.2105 42.0602 21.2964 41.9068 21.4494C41.7532 21.6022 41.667 21.8097 41.667 22.026C41.667 22.2421 41.7532 22.4495 41.9068 22.6025C42.0602 22.7553 42.2684 22.8412 42.4855 22.8412C42.7023 22.8412 42.9105 22.7553 43.0641 22.6025C43.2175 22.4495 43.3036 22.2421 43.3036 22.026C43.3036 21.8097 43.2175 21.6022 43.0641 21.4494C42.9105 21.2964 42.7023 21.2105 42.4855 21.2105Z" fill="white"/>
<path d="M44.5306 32.2179C44.0967 32.2179 43.6803 32.0459 43.3733 31.7401C43.0664 31.4343 42.894 31.0196 42.894 30.587C42.894 30.1546 43.0664 29.7397 43.3733 29.4339C43.6803 29.128 44.0967 28.9563 44.5306 28.9563C44.9648 28.9563 45.381 29.128 45.688 29.4339C45.9949 29.7397 46.1673 30.1546 46.1673 30.587C46.1673 31.0196 45.9949 31.4343 45.688 31.7401C45.381 32.0459 44.9648 32.2179 44.5306 32.2179ZM44.5306 29.7718C44.3136 29.7718 44.1056 29.8577 43.952 30.0105C43.7986 30.1635 43.7125 30.371 43.7125 30.587C43.7125 30.8033 43.7986 31.0108 43.952 31.1636C44.1056 31.3166 44.3136 31.4025 44.5306 31.4025C44.7477 31.4025 44.9559 31.3166 45.1093 31.1636C45.2629 31.0108 45.3491 30.8033 45.3491 30.587C45.3491 30.371 45.2629 30.1635 45.1093 30.0105C44.956 29.8577 44.7477 29.7718 44.5306 29.7718Z" fill="white"/>
<path d="M40.8488 39.5558C40.4148 39.5558 39.9984 39.3841 39.6915 39.0783C39.3845 38.7724 39.2122 38.3577 39.2122 37.9251C39.2122 37.4928 39.3845 37.0778 39.6915 36.772C39.9984 36.4662 40.4148 36.2944 40.8488 36.2944C41.2829 36.2944 41.6991 36.4662 42.0061 36.772C42.313 37.0778 42.4856 37.4927 42.4856 37.9251C42.4856 38.3577 42.313 38.7724 42.0061 39.0783C41.6991 39.3841 41.2829 39.5558 40.8488 39.5558ZM40.8488 37.1097V37.1099C40.6317 37.1099 40.4237 37.1958 40.2701 37.3486C40.1168 37.5016 40.0306 37.7089 40.0306 37.9252C40.0306 38.1415 40.1168 38.3489 40.2701 38.5017C40.4237 38.6548 40.6317 38.7406 40.8488 38.7406C41.0658 38.7406 41.2741 38.6548 41.4274 38.5017C41.581 38.3489 41.6672 38.1415 41.6672 37.9252C41.6672 37.7089 41.581 37.5016 41.4274 37.3486C41.2741 37.1958 41.0658 37.1099 40.8488 37.1099V37.1097Z" fill="white"/>
<path d="M28.983 40.779C28.5489 40.779 28.1327 40.6072 27.8257 40.3014C27.5188 39.9956 27.3464 39.5809 27.3464 39.1483C27.3464 38.7159 27.5188 38.301 27.8257 37.9951C28.1327 37.6893 28.5489 37.5176 28.983 37.5176C29.417 37.5176 29.8334 37.6893 30.1404 37.9951C30.4473 38.301 30.6196 38.7159 30.6196 39.1483C30.6196 39.5809 30.4473 39.9956 30.1404 40.3014C29.8334 40.6072 29.417 40.779 28.983 40.779V40.779ZM28.983 38.3329V38.3331C28.766 38.3331 28.5577 38.419 28.4044 38.5718C28.2508 38.7248 28.1646 38.932 28.1646 39.1483C28.1646 39.3646 28.2508 39.5721 28.4044 39.7249C28.5577 39.8779 28.766 39.9638 28.983 39.9638C29.2001 39.9638 29.4081 39.8779 29.5617 39.7249C29.715 39.5721 29.8014 39.3646 29.8014 39.1483C29.8014 38.932 29.715 38.7248 29.5617 38.5718C29.4081 38.419 29.2001 38.3331 28.983 38.3331V38.3329Z" fill="white"/>
<path d="M27.3463 27.7331C26.9121 27.7331 26.4959 27.5613 26.189 27.2555C25.8821 26.9497 25.7095 26.5348 25.7095 26.1024C25.7095 25.6698 25.8821 25.2551 26.189 24.9492C26.4959 24.6434 26.9121 24.4717 27.3463 24.4717C27.7802 24.4717 28.1967 24.6434 28.5036 24.9492C28.8105 25.2551 28.9829 25.6698 28.9829 26.1024C28.9829 26.5347 28.8105 26.9497 28.5036 27.2555C28.1967 27.5613 27.7802 27.7331 27.3463 27.7331ZM27.3463 25.287C27.1292 25.287 26.921 25.3728 26.7676 25.5259C26.6141 25.6787 26.5279 25.8861 26.5279 26.1024C26.5279 26.3187 26.6141 26.526 26.7676 26.679C26.921 26.8318 27.1292 26.9177 27.3463 26.9177C27.5632 26.9177 27.7714 26.8318 27.9249 26.679C28.0783 26.526 28.1645 26.3187 28.1645 26.1024C28.1645 25.8861 28.0783 25.6787 27.9249 25.5259C27.7714 25.3728 27.5632 25.287 27.3463 25.287Z" fill="white"/>
<path d="M44.5307 30.9946H39.6208C39.3948 30.9946 39.2117 30.8121 39.2117 30.5868C39.2117 30.3617 39.3948 30.1792 39.6208 30.1792H44.5307C44.7567 30.1792 44.9398 30.3617 44.9398 30.5868C44.9398 30.8121 44.7567 30.9946 44.5307 30.9946Z" fill="white"/>
<path d="M38.1686 28.0797C38.0129 28.0795 37.8709 27.991 37.8023 27.8516C37.7338 27.7123 37.7504 27.5464 37.8455 27.4233L42.1621 21.7772C42.2258 21.6857 42.3241 21.6242 42.4344 21.6067C42.5446 21.5895 42.6573 21.6177 42.7461 21.6851C42.8349 21.7524 42.8924 21.8532 42.9049 21.9636C42.9174 22.0742 42.8841 22.185 42.8126 22.2705L38.496 27.921C38.4178 28.0221 38.2967 28.0811 38.1686 28.08L38.1686 28.0797Z" fill="white"/>
<path d="M28.9831 39.5559C28.825 39.5565 28.6807 39.4663 28.6127 39.3243C28.5444 39.1823 28.5643 39.0137 28.6639 38.8915L33.3038 33.1837C33.4496 33.0221 33.6969 33.0029 33.8661 33.14C34.0354 33.2771 34.0669 33.5222 33.938 33.6974L29.298 39.4052C29.2211 39.4999 29.1053 39.5552 28.9831 39.5559L28.9831 39.5559Z" fill="white"/>
<path d="M40.8487 38.3333C40.7127 38.3333 40.5854 38.2661 40.5092 38.1538L37.641 33.8486C37.5304 33.6623 37.5853 33.4225 37.7656 33.3022C37.9462 33.1819 38.1896 33.2232 38.3201 33.396L41.1842 37.6808L41.1844 37.681C41.2781 37.8056 41.2926 37.9728 41.2211 38.1116C41.1498 38.2502 41.0053 38.3363 40.8487 38.3333H40.8487Z" fill="white"/>
<path d="M32.6652 29.2945C32.5997 29.295 32.5351 29.2795 32.4768 29.2498L27.1578 26.4653C27.0591 26.4165 26.9843 26.3302 26.9504 26.2258C26.9163 26.1212 26.9262 26.0076 26.9774 25.9105C27.0286 25.8132 27.1169 25.7407 27.2226 25.7093C27.3282 25.6781 27.442 25.6904 27.5383 25.7437L32.8574 28.5282C33.022 28.6166 33.1054 28.8051 33.06 28.9857C33.0146 29.1665 32.8522 29.2937 32.6652 29.2945H32.6652Z" fill="white"/>
</svg>
