<svg width="55" height="55" viewBox="0 0 55 55" fill="none" xmlns="http://www.w3.org/2000/svg">
<path d="M48.4992 28.618C52.3681 30.8855 54.9682 35.075 54.9763 39.872C54.9901 47.0929 49.1253 52.9573 41.8795 52.9689C34.6336 52.9826 28.7486 47.138 28.7353 39.9171C28.7267 35.1201 31.3117 30.9225 35.1738 28.6395L38.9438 34.9895C39.0379 35.1484 38.9842 35.3534 38.8313 35.4578C37.4047 36.4246 36.4697 38.0557 36.4731 39.9038C36.4783 42.8665 38.8936 45.265 41.8657 45.2581C44.8387 45.253 47.2437 42.8476 47.2385 39.8853C47.2355 38.0377 46.2954 36.4091 44.8654 35.4475C44.7128 35.3435 44.6574 35.1386 44.7511 34.9791L48.4992 28.618ZM19.5409 28.5407C17.5831 27.4479 15.3776 26.8758 13.1355 26.8791C5.88798 26.8791 0.0150146 32.7336 0.0150146 39.9545C0.0150146 47.175 5.88798 53.0299 13.1355 53.0299C20.417 53.0299 26.4344 46.8695 26.2513 39.6185H18.8658C18.6712 39.6185 18.5186 39.783 18.5169 39.976C18.4985 42.8648 16.0797 45.3187 13.1355 45.3187C10.1612 45.3187 7.75283 42.9168 7.75283 39.9541C7.75283 36.9918 10.1612 34.5898 13.1355 34.5898C13.9128 34.5898 14.6532 34.7544 15.3209 35.0513C15.4855 35.1235 15.6801 35.0685 15.7708 34.9155L19.5409 28.5407ZM20.6013 26.4894C16.7376 24.215 14.1444 20.0209 14.1444 15.2238C14.1444 8.00293 20.0191 2.14844 27.2649 2.14844C34.5108 2.14844 40.3854 8.00293 40.3854 15.2238C40.3854 20.0209 37.7923 24.215 33.9285 26.4894L30.1683 20.1352C30.0742 19.9762 30.1279 19.7712 30.2826 19.6668C31.7092 18.7017 32.6472 17.0719 32.6472 15.2238C32.6472 12.2616 30.2371 9.85961 27.2645 9.85961C24.2919 9.85961 21.8818 12.2616 21.8818 15.2243C21.8818 17.0719 22.8198 18.7017 24.2468 19.6672C24.4015 19.7712 24.4548 19.9757 24.3607 20.1356L20.6013 26.4894Z" fill="white"/>
</svg>
