<svg width="55" height="55" viewBox="0 0 55 55" fill="none" xmlns="http://www.w3.org/2000/svg">
<path d="M27.5 32.3984C30.2053 32.3984 32.3984 30.2053 32.3984 27.5C32.3984 24.7947 30.2053 22.6016 27.5 22.6016C24.7947 22.6016 22.6016 24.7947 22.6016 27.5C22.6016 30.2053 24.7947 32.3984 27.5 32.3984Z" fill="white"/>
<path d="M46.1055 19.4219C45.1602 19.0781 44.1719 18.7344 43.1406 18.4336C43.3984 17.4023 43.6133 16.3711 43.7852 15.3828C44.6875 9.71094 43.6992 5.71484 40.9492 4.16797C40.1328 3.69531 39.2305 3.48047 38.1992 3.48047C35.1914 3.48047 31.3672 5.71484 27.5 9.45312C23.6328 5.71484 19.8086 3.48047 16.8008 3.48047C15.7695 3.48047 14.8672 3.69531 14.0508 4.16797C11.3008 5.75781 10.3125 9.75391 11.2148 15.3828C11.3867 16.3711 11.6016 17.4023 11.8594 18.4336C10.8281 18.7344 9.83984 19.0352 8.89453 19.4219C3.52344 21.4844 0.601562 24.3203 0.601562 27.5C0.601562 30.6797 3.56641 33.5156 8.89453 35.5781C9.83984 35.9219 10.8281 36.2656 11.8594 36.5664C11.6016 37.5977 11.3867 38.6289 11.2148 39.6172C10.3125 45.2891 11.3008 49.2852 14.0508 50.832C14.8672 51.3047 15.7695 51.5195 16.8008 51.5195C19.8516 51.5195 23.6758 49.2852 27.5 45.5469C31.3672 49.2852 35.1914 51.5195 38.1992 51.5195C39.2305 51.5195 40.1328 51.3047 40.9492 50.832C43.6992 49.2422 44.6875 45.2461 43.7852 39.6172C43.6133 38.6289 43.3984 37.5977 43.1406 36.5664C44.1719 36.2656 45.1602 35.9648 46.1055 35.5781C51.4766 33.5156 54.3984 30.6797 54.3984 27.5C54.3984 24.3203 51.4766 21.4844 46.1055 19.4219V19.4219ZM39.7461 6.31641C41.5078 7.34766 42.1094 10.5273 41.3789 15.0391C41.25 15.9414 41.0352 16.8867 40.7773 17.875C38.543 17.3594 36.1797 17.0156 33.6875 16.8008C32.2266 14.7383 30.7227 12.8906 29.2187 11.2148C32.3984 8.07812 35.6211 5.92969 38.2422 5.92969C38.8008 5.92969 39.3164 6.05859 39.7461 6.31641V6.31641ZM34.9336 31.7969C34.1602 33.1719 33.2578 34.5469 32.3125 35.9219C30.7227 36.0508 29.1328 36.0938 27.5 36.0938C25.8242 36.0938 24.2344 36.0508 22.6875 35.9219C21.7422 34.5469 20.8828 33.1719 20.1094 31.7969C19.293 30.3789 18.5195 28.918 17.832 27.5C18.5195 26.082 19.293 24.6211 20.1094 23.2031C20.8828 21.8281 21.7852 20.4531 22.7305 19.0781C24.3203 18.9492 25.9102 18.9063 27.543 18.9063C29.2187 18.9063 30.8086 18.9492 32.3555 19.0781C33.3008 20.4531 34.1602 21.8281 34.9336 23.2031C35.75 24.6211 36.5234 26.082 37.2109 27.5C36.4805 28.918 35.75 30.3359 34.9336 31.7969ZM38.5 30.3789C39.1445 31.8828 39.6602 33.3438 40.1328 34.8047C38.6719 35.1484 37.125 35.4063 35.4922 35.6211C36.0078 34.8047 36.5664 33.9453 37.0391 33.043C37.5547 32.1406 38.0273 31.2383 38.5 30.3789ZM27.5 42.0234C26.4687 40.9063 25.4805 39.7031 24.5352 38.457C25.5234 38.5 26.5117 38.543 27.5 38.543C28.4883 38.543 29.4766 38.5 30.4648 38.457C29.5195 39.7031 28.5312 40.9063 27.5 42.0234ZM19.5078 35.5781C17.875 35.3633 16.3281 35.1055 14.8672 34.7617C15.3398 33.3438 15.8555 31.8398 16.5 30.3359C16.9727 31.1953 17.4453 32.0977 17.9609 32.957C18.4766 33.9023 18.9922 34.7188 19.5078 35.5781V35.5781ZM16.5 24.6211C15.8555 23.1172 15.3398 21.6563 14.8672 20.1953C16.3281 19.8516 17.875 19.5938 19.5078 19.3789C18.9922 20.1953 18.4336 21.0547 17.9609 21.957C17.4453 22.8594 16.9727 23.7617 16.5 24.6211V24.6211ZM27.5 12.9766C28.5312 14.0938 29.5195 15.2969 30.4648 16.543C29.4766 16.5 28.4883 16.457 27.5 16.457C26.5117 16.457 25.5234 16.5 24.5352 16.543C25.4805 15.2969 26.4687 14.0938 27.5 12.9766ZM37.0391 22L35.4922 19.4219C37.125 19.6367 38.6719 19.8945 40.1328 20.2383C39.6602 21.6562 39.1445 23.1602 38.5 24.6641C38.0273 23.7617 37.5547 22.8594 37.0391 22ZM13.6211 15.0391C12.8906 10.5273 13.4922 7.34766 15.2539 6.31641C15.6836 6.05859 16.1992 5.92969 16.7578 5.92969C19.3359 5.92969 22.5586 8.03516 25.7812 11.2148C24.2773 12.8477 22.7734 14.7383 21.3125 16.8008C18.8203 17.0156 16.457 17.4023 14.2227 17.875C13.9648 16.8867 13.793 15.9414 13.6211 15.0391V15.0391ZM3.00781 27.5C3.00781 25.4805 5.45703 23.332 9.75391 21.7422C10.6133 21.3984 11.5586 21.0977 12.5039 20.8398C13.1914 22.9883 14.0508 25.2656 15.082 27.543C14.0508 29.8203 13.1484 32.0547 12.5039 34.2031C6.57422 32.4844 3.00781 29.9063 3.00781 27.5ZM15.2539 48.6836C13.4922 47.6523 12.8906 44.4727 13.6211 39.9609C13.75 39.0586 13.9648 38.1133 14.2227 37.125C16.457 37.6406 18.8203 37.9844 21.3125 38.1992C22.7734 40.2617 24.2773 42.1094 25.7812 43.7852C22.6016 46.9219 19.3789 49.0703 16.7578 49.0703C16.1992 49.0703 15.6836 48.9414 15.2539 48.6836ZM41.3789 39.9609C42.1094 44.4727 41.5078 47.6523 39.7461 48.6836C39.3164 48.9414 38.8008 49.0703 38.2422 49.0703C35.6641 49.0703 32.4414 46.9648 29.2187 43.7852C30.7227 42.1523 32.2266 40.2617 33.6875 38.1992C36.1797 37.9844 38.543 37.5977 40.7773 37.125C41.0352 38.1133 41.207 39.0586 41.3789 39.9609V39.9609ZM45.2461 33.2578C44.3867 33.6016 43.4414 33.9023 42.4961 34.1602C41.8086 32.0117 40.9492 29.7344 39.918 27.457C40.9492 25.1797 41.8516 22.9453 42.4961 20.7969C48.4258 22.5156 51.9922 25.0938 51.9922 27.5C51.9922 29.5195 49.5 31.668 45.2461 33.2578Z" fill="white"/>
</svg>
